<?xml version="1.0" encoding="UTF-8"?>
<svg id="FRONT_FACE" data-name="FRONT FACE" xmlns="http://www.w3.org/2000/svg" viewBox="0 0 342.21 344.85">
  <defs>
    <style>
      .cls-1, .cls-2 {
        fill: #2ee6a6;
      }

      .cls-3 {
        fill: #fff;
      }

      .cls-4 {
        fill: #f5f5f5;
      }

      .cls-4, .cls-2 {
        fill-rule: evenodd;
      }
    </style>
  </defs>
  <path class="cls-2" d="M0,172.42C0,77.2,77.2,0,172.42,0s172.42,77.2,172.42,172.42-77.2,172.42-172.42,172.42S0,267.65,0,172.42h0Z"/>
  <path class="cls-4" d="M54.29,109.52c0-29.61,24-53.61,53.61-53.61s53.61,24,53.61,53.61-24,53.61-53.61,53.61-53.61-24-53.61-53.61h0Z"/>
  <path class="cls-4" d="M183.35,117.11c0-29.61,24-53.61,53.61-53.61s53.61,24,53.61,53.61-24,53.61-53.61,53.61-53.61-24-53.61-53.61h0Z"/>
  <path class="cls-3" d="M184.86,238.49c-20.15,4.26-41.92-.1-59.04-13.76-4.52-3.61-8.58-7.77-12.07-12.38-4.6-6.08-3.41-14.75,2.68-19.35,6.08-4.6,14.75-3.41,19.35,2.68,2.1,2.77,4.54,5.28,7.27,7.46,18.48,14.75,45.88,11.69,61.08-6.8,4.85-5.89,13.55-6.75,19.45-1.9,5.89,4.84,6.74,13.55,1.9,19.45-10.72,13.04-25.2,21.35-40.61,24.61Z"/>
  <circle class="cls-1" cx="114.35" cy="120.72" r="21.26"/>
  <circle class="cls-1" cx="236.96" cy="120.72" r="21.26"/>
</svg>