<?xml version="1.0" encoding="UTF-8"?>
<svg id="FRONT_FACE" data-name="FRONT FACE" xmlns="http://www.w3.org/2000/svg" viewBox="0 0 350.39 344.85">
  <defs>
    <style>
      .cls-1, .cls-2 {
        fill: #2ee6a6;
      }

      .cls-3 {
        fill: #fff;
      }

      .cls-4 {
        fill: #f5f5f5;
      }

      .cls-4, .cls-2 {
        fill-rule: evenodd;
      }
    </style>
  </defs>
  <path class="cls-2" d="M0,172.42C0,77.2,77.2,0,172.42,0s172.42,77.2,172.42,172.42-77.2,172.42-172.42,172.42S0,267.65,0,172.42h0Z"/>
  <path class="cls-4" d="M54.29,109.52c0-29.61,24-53.61,53.61-53.61s53.61,24,53.61,53.61-24,53.61-53.61,53.61-53.61-24-53.61-53.61h0Z"/>
  <path class="cls-4" d="M183.35,117.11c0-29.61,24-53.61,53.61-53.61s53.61,24,53.61,53.61-24,53.61-53.61,53.61-53.61-24-53.61-53.61h0Z"/>
  <circle class="cls-1" cx="93.09" cy="99.46" r="21.26"/>
  <circle class="cls-1" cx="220.96" cy="109.52" r="21.26"/>
  <ellipse class="cls-3" cx="135.17" cy="202.27" rx="21.58" ry="19.26"/>
</svg>