<?xml version="1.0" encoding="UTF-8"?>
<svg id="WORDMARK" xmlns="http://www.w3.org/2000/svg" viewBox="0 0 1509.84 267.93">
  <defs>
    <style>
      .cls-1 {
        fill: #2ee6a6;
      }

      .cls-2 {
        fill: #f7f9f8;
      }
    </style>
  </defs>
  <g id="LETTERS">
    <path class="cls-1" d="M50.81,217.38V53.48h62.7c11.29,0,21.3,1.98,30.03,5.94,8.72,3.96,15.58,9.83,20.57,17.6,4.98,7.78,7.48,17.38,7.48,28.82s-2.57,20.65-7.7,28.49c-5.14,7.85-12.03,13.75-20.68,17.71l37.4,65.34h-38.28l-40.48-72.38,22,12.98h-38.94v59.4h-34.1ZM84.91,128.28h28.82c4.84,0,9.02-.95,12.54-2.86,3.52-1.9,6.27-4.54,8.25-7.92,1.98-3.37,2.97-7.26,2.97-11.66s-.99-8.5-2.97-11.88c-1.98-3.37-4.73-6.01-8.25-7.92-3.52-1.9-7.7-2.86-12.54-2.86h-28.82v45.1Z"/>
    <path class="cls-1" d="M230.55,220.02c-12.76,0-23.84-2.82-33.22-8.47-9.39-5.64-16.65-13.23-21.78-22.77-5.14-9.53-7.7-20.09-7.7-31.68s2.67-22.73,8.03-32.12c5.35-9.38,12.57-16.79,21.67-22.22,9.09-5.42,19.36-8.14,30.8-8.14,9.53,0,17.96,1.51,25.3,4.51,7.33,3.01,13.53,7.23,18.59,12.65,5.06,5.43,8.91,11.7,11.55,18.81,2.64,7.12,3.96,14.85,3.96,23.21,0,2.35-.11,4.66-.33,6.93-.22,2.28-.63,4.22-1.21,5.83h-89.98v-24.2h71.28l-15.62,11.44c1.46-6.3,1.39-11.91-.22-16.83-1.62-4.91-4.44-8.8-8.47-11.66-4.04-2.86-8.99-4.29-14.85-4.29s-10.64,1.4-14.74,4.18c-4.11,2.79-7.19,6.9-9.24,12.32-2.06,5.43-2.86,12.03-2.42,19.8-.59,6.75.22,12.69,2.42,17.82,2.2,5.14,5.57,9.13,10.12,11.99,4.54,2.86,10.04,4.29,16.5,4.29,5.86,0,10.89-1.17,15.07-3.52,4.18-2.34,7.44-5.57,9.79-9.68l26.4,12.54c-2.35,5.87-6.05,11-11.11,15.4-5.06,4.4-11.04,7.81-17.93,10.23-6.9,2.42-14.45,3.63-22.66,3.63Z"/>
    <path class="cls-1" d="M328.45,220.02c-8.66,0-16.14-1.4-22.44-4.18-6.31-2.78-11.15-6.78-14.52-11.99-3.38-5.2-5.06-11.4-5.06-18.59,0-6.74,1.54-12.72,4.62-17.93,3.08-5.2,7.81-9.57,14.19-13.09,6.38-3.52,14.33-6.01,23.87-7.48l36.74-5.94v24.2l-30.8,5.5c-4.7.88-8.29,2.39-10.78,4.51-2.5,2.13-3.74,5.17-3.74,9.13,0,3.67,1.39,6.53,4.18,8.58,2.78,2.06,6.23,3.08,10.34,3.08,5.42,0,10.19-1.17,14.3-3.52,4.1-2.34,7.29-5.53,9.57-9.57,2.27-4.03,3.41-8.47,3.41-13.31v-31.24c0-4.54-1.8-8.36-5.39-11.44-3.6-3.08-8.47-4.62-14.63-4.62s-11.04,1.62-15.51,4.84c-4.48,3.23-7.74,7.48-9.79,12.76l-26.4-12.54c2.34-6.74,6.08-12.54,11.22-17.38,5.13-4.84,11.29-8.58,18.48-11.22,7.18-2.64,15.03-3.96,23.54-3.96,10.12,0,19.06,1.84,26.84,5.5,7.77,3.67,13.82,8.77,18.15,15.29,4.32,6.53,6.49,14.12,6.49,22.77v79.2h-30.8v-19.36l7.48-1.32c-3.52,5.28-7.41,9.65-11.66,13.09-4.26,3.45-9.02,6.02-14.3,7.7-5.28,1.68-11.15,2.53-17.6,2.53Z"/>
    <path class="cls-1" d="M462.65,220.02c-12.03,0-22.85-2.75-32.45-8.25-9.61-5.5-17.24-13.01-22.88-22.55-5.65-9.53-8.47-20.24-8.47-32.12s2.78-22.55,8.36-32.01c5.57-9.46,13.2-16.9,22.88-22.33,9.68-5.42,20.53-8.14,32.56-8.14,8.94,0,17.23,1.54,24.86,4.62,7.62,3.08,14.15,7.37,19.58,12.87,5.42,5.5,9.31,11.99,11.66,19.47l-28.6,12.32c-2.06-6.01-5.54-10.78-10.45-14.3-4.92-3.52-10.6-5.28-17.05-5.28-5.72,0-10.82,1.4-15.29,4.18-4.48,2.79-8,6.68-10.56,11.66-2.57,4.99-3.85,10.71-3.85,17.16s1.28,12.18,3.85,17.16c2.56,4.99,6.08,8.88,10.56,11.66,4.47,2.79,9.57,4.18,15.29,4.18,6.6,0,12.32-1.76,17.16-5.28,4.84-3.52,8.28-8.28,10.34-14.3l28.6,12.54c-2.2,7.04-6.02,13.35-11.44,18.92-5.43,5.58-11.96,9.94-19.58,13.09-7.63,3.15-15.99,4.73-25.08,4.73Z"/>
    <path class="cls-1" d="M580.13,218.7c-14.52,0-25.78-3.92-33.77-11.77-8-7.84-11.99-18.81-11.99-32.89v-48.18h-20.24v-28.6h1.1c6.16,0,10.89-1.54,14.19-4.62,3.3-3.08,4.95-7.7,4.95-13.86v-8.8h33v27.28h28.16v28.6h-28.16v45.98c0,4.11.73,7.52,2.2,10.23,1.46,2.72,3.74,4.73,6.82,6.05,3.08,1.32,6.89,1.98,11.44,1.98,1.02,0,2.2-.07,3.52-.22,1.32-.14,2.71-.29,4.18-.44v27.94c-2.2.29-4.7.58-7.48.88-2.79.29-5.43.44-7.92.44Z"/>
    <path class="cls-1" d="M599.05,86.48v-33h33v33h-33ZM599.05,217.38v-120.12h33v120.12h-33Z"/>
    <path class="cls-1" d="M700.03,220.02c-11.88,0-22.7-2.71-32.45-8.14-9.76-5.42-17.53-12.87-23.32-22.33-5.8-9.46-8.69-20.2-8.69-32.23s2.89-22.95,8.69-32.34c5.79-9.38,13.56-16.79,23.32-22.22,9.75-5.42,20.57-8.14,32.45-8.14s22.66,2.72,32.34,8.14c9.68,5.43,17.41,12.84,23.21,22.22,5.79,9.39,8.69,20.17,8.69,32.34s-2.9,22.77-8.69,32.23c-5.79,9.46-13.53,16.91-23.21,22.33-9.68,5.43-20.46,8.14-32.34,8.14ZM700.03,190.32c6.01,0,11.25-1.39,15.73-4.18,4.47-2.78,7.99-6.67,10.56-11.66,2.56-4.98,3.85-10.7,3.85-17.16s-1.29-12.13-3.85-17.05c-2.57-4.91-6.09-8.8-10.56-11.66-4.48-2.86-9.72-4.29-15.73-4.29s-11.3,1.43-15.84,4.29c-4.55,2.86-8.11,6.75-10.67,11.66-2.57,4.92-3.85,10.6-3.85,17.05s1.28,12.18,3.85,17.16c2.56,4.99,6.12,8.88,10.67,11.66,4.54,2.79,9.82,4.18,15.84,4.18Z"/>
    <path class="cls-1" d="M767.79,217.38v-120.12h30.8v23.76l-1.76-5.28c2.78-7.18,7.29-12.5,13.53-15.95,6.23-3.44,13.53-5.17,21.89-5.17,9.09,0,17.05,1.91,23.87,5.72,6.82,3.82,12.13,9.13,15.95,15.95,3.81,6.82,5.72,14.78,5.72,23.87v77.22h-33v-70.18c0-4.69-.92-8.72-2.75-12.1-1.84-3.37-4.4-6.01-7.7-7.92-3.3-1.9-7.15-2.86-11.55-2.86s-8.07.96-11.44,2.86c-3.38,1.91-5.98,4.55-7.81,7.92-1.84,3.38-2.75,7.41-2.75,12.1v70.18h-33Z"/>
    <path class="cls-1" d="M886.15,217.38V53.48h69.3c11.29,0,20.97,1.91,29.04,5.72,8.06,3.82,14.22,9.28,18.48,16.39,4.25,7.12,6.38,15.73,6.38,25.85,0,7.19-1.98,14.05-5.94,20.57-3.96,6.53-10.49,11.99-19.58,16.39v-16.72c8.65,3.38,15.32,7.41,20.02,12.1,4.69,4.7,7.92,9.79,9.68,15.29s2.64,11.26,2.64,17.27c0,16.14-5.36,28.68-16.06,37.62-10.71,8.95-25.6,13.42-44.66,13.42h-69.3ZM920.25,115.08h37.62c5.28,0,9.49-1.5,12.65-4.51,3.15-3,4.73-7,4.73-11.99s-1.58-8.98-4.73-11.99c-3.16-3-7.37-4.51-12.65-4.51h-37.62v33ZM920.25,187.68h39.16c6.89,0,12.39-1.98,16.5-5.94,4.1-3.96,6.16-9.09,6.16-15.4s-2.06-11.66-6.16-15.62c-4.11-3.96-9.61-5.94-16.5-5.94h-39.16v42.9Z"/>
    <path class="cls-1" d="M1079.31,220.02c-11.88,0-22.7-2.71-32.45-8.14-9.76-5.42-17.53-12.87-23.32-22.33-5.8-9.46-8.69-20.2-8.69-32.23s2.89-22.95,8.69-32.34c5.79-9.38,13.56-16.79,23.32-22.22,9.75-5.42,20.57-8.14,32.45-8.14s22.66,2.72,32.34,8.14c9.68,5.43,17.42,12.84,23.21,22.22,5.79,9.39,8.69,20.17,8.69,32.34s-2.9,22.77-8.69,32.23c-5.79,9.46-13.53,16.91-23.21,22.33-9.68,5.43-20.46,8.14-32.34,8.14Z"/>
    <path class="cls-1" d="M1206.69,220.02c-11.88,0-22.7-2.71-32.45-8.14-9.75-5.42-17.53-12.87-23.32-22.33-5.8-9.46-8.69-20.2-8.69-32.23s2.89-22.95,8.69-32.34c5.79-9.38,13.56-16.79,23.32-22.22,9.75-5.42,20.57-8.14,32.45-8.14s22.66,2.72,32.34,8.14c9.68,5.43,17.42,12.84,23.21,22.22,5.79,9.39,8.69,20.17,8.69,32.34s-2.9,22.77-8.69,32.23c-5.79,9.46-13.53,16.91-23.21,22.33-9.68,5.43-20.46,8.14-32.34,8.14Z"/>
    <path class="cls-1" d="M1330.11,218.7c-14.52,0-25.78-3.92-33.77-11.77-8-7.84-11.99-18.81-11.99-32.89v-48.18h-20.24v-28.6h1.1c6.16,0,10.89-1.54,14.19-4.62,3.3-3.08,4.95-7.7,4.95-13.86v-8.8h33v27.28h28.16v28.6h-28.16v45.98c0,4.11.73,7.52,2.2,10.23,1.46,2.72,3.74,4.73,6.82,6.05,3.08,1.32,6.89,1.98,11.44,1.98,1.02,0,2.2-.07,3.52-.22,1.32-.14,2.71-.29,4.18-.44v27.94c-2.2.29-4.7.58-7.48.88-2.79.29-5.43.44-7.92.44Z"/>
    <path class="cls-1" d="M1349.03,217.38V50.84h33v70.18l-3.96-5.28c2.79-7.18,7.29-12.5,13.53-15.95,6.23-3.44,13.53-5.17,21.89-5.17,9.09,0,17.05,1.91,23.87,5.72,6.82,3.82,12.13,9.13,15.95,15.95,3.81,6.82,5.72,14.78,5.72,23.87v77.22h-33v-70.18c0-4.69-.92-8.72-2.75-12.1-1.83-3.37-4.4-6.01-7.7-7.92-3.3-1.9-7.15-2.86-11.55-2.86s-8.07.96-11.44,2.86c-3.38,1.91-5.98,4.55-7.81,7.92-1.83,3.38-2.75,7.41-2.75,12.1v70.18h-33Z"/>
  </g>
  <circle id="EYE1" class="cls-2" cx="1093.12" cy="172.96" r="25.4"/>
  <circle id="EYE3" class="cls-2" cx="1229.12" cy="172.96" r="25.4"/>
</svg>